<svg width="24" height="24" viewBox="0 0 24 24" fill="none" xmlns="http://www.w3.org/2000/svg">
<path fill-rule="evenodd" clip-rule="evenodd" d="M4 4H20C21.1 4 22 4.9 22 6V18C22 19.1 21.1 20 20 20H4C2.9 20 2 19.1 2 18V6C2 4.9 2.9 4 4 4ZM13.06 12.34L19.6 8.25001C19.85 8.09001 20 7.82001 20 7.53001C20 6.86001 19.27 6.46001 18.7 6.81001L12 11L5.30001 6.81001C4.73001 6.46001 4.00001 6.86001 4.00001 7.53001C4.00001 7.82001 4.15001 8.09001 4.40001 8.25001L10.94 12.34C11.59 12.75 12.41 12.75 13.06 12.34Z" fill="#C66C49"/>
</svg>
